<svg xmlns="http://www.w3.org/2000/svg" viewBox="0 0 1200 720" preserveAspectRatio="xMidYMid slice"><defs>
<linearGradient id="bg" x1="0" y1="0" x2="1" y2="1"><stop offset="0" stop-color="#020711"/><stop offset="0.52" stop-color="#061528"/><stop offset="1" stop-color="#110925"/></linearGradient>
<linearGradient id="cyan" x1="0" y1="0" x2="1" y2="1"><stop offset="0" stop-color="#16f2ff"/><stop offset="0.5" stop-color="#2f86ff"/><stop offset="1" stop-color="#b04cff"/></linearGradient>
<radialGradient id="glow"><stop offset="0" stop-color="#36e7ff" stop-opacity=".85"/><stop offset=".35" stop-color="#3a83ff" stop-opacity=".32"/><stop offset="1" stop-color="#000" stop-opacity="0"/></radialGradient>
<filter id="blur"><feGaussianBlur stdDeviation="18"/></filter>
<filter id="soft"><feGaussianBlur stdDeviation="5"/></filter>
<filter id="shadow"><feDropShadow dx="0" dy="0" stdDeviation="8" flood-color="#2fe7ff" flood-opacity=".42"/></filter>
<pattern id="grid" width="46" height="46" patternUnits="userSpaceOnUse"><path d="M46 0H0V46" fill="none" stroke="#1f8fd0" stroke-opacity=".075"/></pattern>
</defs><rect width="1200" height="720" fill="url(#bg)"/><rect width="1200" height="720" fill="url(#grid)"/><ellipse cx="760" cy="360" rx="390" ry="290" fill="url(#glow)" opacity=".28" filter="url(#blur)"/>
<g transform="translate(610 92)">
 <circle cx="270" cy="260" r="172" fill="#07172c" stroke="#35e8ff" stroke-width="3"/>
 <g fill="none" stroke="#3485ff" opacity=".58"><ellipse cx="270" cy="260" rx="160" ry="55"/><ellipse cx="270" cy="260" rx="75" ry="160"/><path d="M110 260h320M270 100v320"/></g>
 <path d="M160 345 C220 315 255 333 305 265 S385 160 450 135" fill="none" stroke="url(#cyan)" stroke-width="8" stroke-linecap="round" filter="url(#shadow)"/>
 <g fill="#46eaff"><circle cx="160" cy="345" r="9"/><circle cx="237" cy="316" r="9"/><circle cx="305" cy="265" r="9"/><circle cx="368" cy="190" r="9"/><circle cx="450" cy="135" r="11"/></g>
 <g transform="translate(410 300) rotate(-18)"><circle cx="60" cy="60" r="54" fill="#061426" stroke="#a44fff" stroke-width="9"/><path d="M100 100l72 72" stroke="#a44fff" stroke-width="18" stroke-linecap="round"/></g>
</g>
</svg>